<mxfile host="app.diagrams.net" modified="2023-10-10T12:48:24.605Z" agent="Mozilla/5.0 (Windows NT 10.0; Win64; x64) AppleWebKit/537.36 (KHTML, like Gecko) Chrome/116.0.0.0 Safari/537.36 OPR/102.0.0.0" etag="eUsZhgxn2vikNAbqHlj5" version="22.0.4" type="device">
  <diagram name="Strona-1" id="VlWng58PvbHfWpuif4lw">
    <mxGraphModel dx="1698" dy="816" grid="1" gridSize="10" guides="1" tooltips="1" connect="1" arrows="1" fold="1" page="1" pageScale="1" pageWidth="827" pageHeight="1169" math="0" shadow="0">
      <root>
        <mxCell id="0" />
        <mxCell id="1" parent="0" />
        <mxCell id="7LqRSfB8imiRfSqG5PAs-1" value="city" style="rounded=0;whiteSpace=wrap;html=1;" vertex="1" parent="1">
          <mxGeometry x="110" y="320" width="120" height="60" as="geometry" />
        </mxCell>
        <mxCell id="7LqRSfB8imiRfSqG5PAs-23" style="edgeStyle=orthogonalEdgeStyle;rounded=0;orthogonalLoop=1;jettySize=auto;html=1;exitX=0;exitY=0.5;exitDx=0;exitDy=0;endArrow=none;endFill=0;" edge="1" parent="1" source="7LqRSfB8imiRfSqG5PAs-2" target="7LqRSfB8imiRfSqG5PAs-3">
          <mxGeometry relative="1" as="geometry" />
        </mxCell>
        <mxCell id="7LqRSfB8imiRfSqG5PAs-2" value="weather" style="rounded=0;whiteSpace=wrap;html=1;" vertex="1" parent="1">
          <mxGeometry x="600" y="320" width="120" height="60" as="geometry" />
        </mxCell>
        <mxCell id="7LqRSfB8imiRfSqG5PAs-24" style="edgeStyle=orthogonalEdgeStyle;rounded=0;orthogonalLoop=1;jettySize=auto;html=1;exitX=0;exitY=0.5;exitDx=0;exitDy=0;endArrow=none;endFill=0;" edge="1" parent="1" source="7LqRSfB8imiRfSqG5PAs-3" target="7LqRSfB8imiRfSqG5PAs-1">
          <mxGeometry relative="1" as="geometry" />
        </mxCell>
        <mxCell id="7LqRSfB8imiRfSqG5PAs-3" value="has&amp;nbsp;" style="rhombus;whiteSpace=wrap;html=1;" vertex="1" parent="1">
          <mxGeometry x="390" y="310" width="100" height="80" as="geometry" />
        </mxCell>
        <mxCell id="7LqRSfB8imiRfSqG5PAs-19" style="edgeStyle=orthogonalEdgeStyle;rounded=0;orthogonalLoop=1;jettySize=auto;html=1;exitX=0;exitY=1;exitDx=0;exitDy=0;entryX=1;entryY=0;entryDx=0;entryDy=0;endArrow=none;endFill=0;" edge="1" parent="1" source="7LqRSfB8imiRfSqG5PAs-4" target="7LqRSfB8imiRfSqG5PAs-1">
          <mxGeometry relative="1" as="geometry" />
        </mxCell>
        <mxCell id="7LqRSfB8imiRfSqG5PAs-4" value="countrycode" style="ellipse;whiteSpace=wrap;html=1;" vertex="1" parent="1">
          <mxGeometry x="294" y="170" width="120" height="80" as="geometry" />
        </mxCell>
        <mxCell id="7LqRSfB8imiRfSqG5PAs-18" style="edgeStyle=orthogonalEdgeStyle;rounded=0;orthogonalLoop=1;jettySize=auto;html=1;exitX=0;exitY=1;exitDx=0;exitDy=0;entryX=0.25;entryY=0;entryDx=0;entryDy=0;endArrow=none;endFill=0;" edge="1" parent="1" source="7LqRSfB8imiRfSqG5PAs-6" target="7LqRSfB8imiRfSqG5PAs-1">
          <mxGeometry relative="1" as="geometry" />
        </mxCell>
        <mxCell id="7LqRSfB8imiRfSqG5PAs-6" value="longitude" style="ellipse;whiteSpace=wrap;html=1;" vertex="1" parent="1">
          <mxGeometry x="200" y="50" width="120" height="80" as="geometry" />
        </mxCell>
        <mxCell id="7LqRSfB8imiRfSqG5PAs-16" style="edgeStyle=orthogonalEdgeStyle;rounded=0;orthogonalLoop=1;jettySize=auto;html=1;exitX=1;exitY=1;exitDx=0;exitDy=0;entryX=0;entryY=0.25;entryDx=0;entryDy=0;endArrow=none;endFill=0;" edge="1" parent="1" source="7LqRSfB8imiRfSqG5PAs-9" target="7LqRSfB8imiRfSqG5PAs-1">
          <mxGeometry relative="1" as="geometry" />
        </mxCell>
        <mxCell id="7LqRSfB8imiRfSqG5PAs-9" value="cityname" style="ellipse;whiteSpace=wrap;html=1;" vertex="1" parent="1">
          <mxGeometry x="-50" y="250" width="120" height="80" as="geometry" />
        </mxCell>
        <mxCell id="7LqRSfB8imiRfSqG5PAs-17" style="edgeStyle=orthogonalEdgeStyle;rounded=0;orthogonalLoop=1;jettySize=auto;html=1;exitX=1;exitY=1;exitDx=0;exitDy=0;entryX=0;entryY=0;entryDx=0;entryDy=0;endArrow=none;endFill=0;" edge="1" parent="1" source="7LqRSfB8imiRfSqG5PAs-8" target="7LqRSfB8imiRfSqG5PAs-1">
          <mxGeometry relative="1" as="geometry" />
        </mxCell>
        <mxCell id="7LqRSfB8imiRfSqG5PAs-8" value="latitude" style="ellipse;whiteSpace=wrap;html=1;" vertex="1" parent="1">
          <mxGeometry y="50" width="120" height="80" as="geometry" />
        </mxCell>
        <mxCell id="7LqRSfB8imiRfSqG5PAs-22" style="edgeStyle=orthogonalEdgeStyle;rounded=0;orthogonalLoop=1;jettySize=auto;html=1;exitX=0.5;exitY=1;exitDx=0;exitDy=0;" edge="1" parent="1" source="7LqRSfB8imiRfSqG5PAs-21" target="7LqRSfB8imiRfSqG5PAs-2">
          <mxGeometry relative="1" as="geometry" />
        </mxCell>
        <mxCell id="7LqRSfB8imiRfSqG5PAs-21" value="temperature" style="ellipse;whiteSpace=wrap;html=1;" vertex="1" parent="1">
          <mxGeometry x="600" y="160" width="120" height="80" as="geometry" />
        </mxCell>
        <mxCell id="7LqRSfB8imiRfSqG5PAs-26" style="edgeStyle=orthogonalEdgeStyle;rounded=0;orthogonalLoop=1;jettySize=auto;html=1;exitX=1;exitY=0;exitDx=0;exitDy=0;entryX=0;entryY=0.75;entryDx=0;entryDy=0;endArrow=none;endFill=0;" edge="1" parent="1" source="7LqRSfB8imiRfSqG5PAs-25" target="7LqRSfB8imiRfSqG5PAs-1">
          <mxGeometry relative="1" as="geometry" />
        </mxCell>
        <mxCell id="7LqRSfB8imiRfSqG5PAs-25" value="province" style="ellipse;whiteSpace=wrap;html=1;" vertex="1" parent="1">
          <mxGeometry x="-80" y="360" width="120" height="80" as="geometry" />
        </mxCell>
      </root>
    </mxGraphModel>
  </diagram>
</mxfile>
